HIERARCHY
ROOT Hips
{
	OFFSET -0.179506 -22.333345 2.821913
	CHANNELS 6 Xposition Yposition Zposition Zrotation Yrotation Xrotation 
	JOINT LeftUpLeg
	{
		OFFSET 6.951974 -9.140623 -0.681533
		CHANNELS 3 Zrotation Yrotation Xrotation
		JOINT LeftLeg
		{
			OFFSET 3.427654 -37.519855 -0.449580
			CHANNELS 3 Zrotation Yrotation Xrotation
			JOINT LeftFoot
			{
				OFFSET -1.359570 -39.796059 -4.369333
				CHANNELS 3 Zrotation Yrotation Xrotation
				JOINT LeftToe
				{
					OFFSET 2.635814 -5.579078 11.928840
					CHANNELS 3 Zrotation Yrotation Xrotation
					End Site
					{
						OFFSET 0.000000 0.000000 0.000000
					}
				}
			}
		}
	}
	JOINT RightUpLeg
	{
		OFFSET -6.767048 -9.052170 -0.431982
		CHANNELS 3 Zrotation Yrotation Xrotation
		JOINT RightLeg
		{
			OFFSET -3.829005 -38.256897 -0.885003
			CHANNELS 3 Zrotation Yrotation Xrotation
			JOINT RightFoot
			{
				OFFSET 1.577377 -39.841461 -4.231180
				CHANNELS 3 Zrotation Yrotation Xrotation
				JOINT RightToe
				{
					OFFSET -2.537174 -4.814398 12.334795
					CHANNELS 3 Zrotation Yrotation Xrotation
					End Site
					{
						OFFSET 0.000000 0.000000 0.000000
					}
				}
			}
		}
	}
	JOINT Spine
	{
		OFFSET -0.253288 10.896323 -2.669631
		CHANNELS 3 Zrotation Yrotation Xrotation
		JOINT Spine1
		{
			OFFSET 0.548704 13.518043 0.109247
			CHANNELS 3 Zrotation Yrotation Xrotation
			JOINT Spine2
			{
				OFFSET 0.145701 5.292222 2.542457
				CHANNELS 3 Zrotation Yrotation Xrotation
				JOINT Neck
				{
					OFFSET -0.277840 21.387037 -4.285703
					CHANNELS 3 Zrotation Yrotation Xrotation
					JOINT Head
					{
						OFFSET 0.515184 6.496960 5.134897
						CHANNELS 3 Zrotation Yrotation Xrotation
						End Site
						{
							OFFSET 0.000000 0.000000 0.000000
						}
					}
				}
				JOINT LeftShoulder
				{
					OFFSET 7.884473 12.174932 -3.408961
					CHANNELS 3 Zrotation Yrotation Xrotation
					JOINT LeftArm
					{
						OFFSET 9.097692 3.046888 -0.886815
						CHANNELS 3 Zrotation Yrotation Xrotation
						JOINT LeftForeArm
						{
							OFFSET 25.961220 -1.277207 -2.745643
							CHANNELS 3 Zrotation Yrotation Xrotation
							JOINT LeftHand
							{
								OFFSET 24.923361 0.898606 -0.117091
								CHANNELS 3 Zrotation Yrotation Xrotation
								End Site
								{
									OFFSET 0.000000 0.000000 0.000000
								}
							}
						}
					}
				}
				JOINT RightShoulder
				{
					OFFSET -8.175920 11.883285 -3.861528
					CHANNELS 3 Zrotation Yrotation Xrotation
					JOINT RightArm
					{
						OFFSET -9.601238 3.255117 -0.914307
						CHANNELS 3 Zrotation Yrotation Xrotation
						JOINT RightForeArm
						{
							OFFSET -25.374195 -1.332924 -2.140099
							CHANNELS 3 Zrotation Yrotation Xrotation
							JOINT RightHand
							{
								OFFSET -25.529810 0.777228 -0.555919
								CHANNELS 3 Zrotation Yrotation Xrotation
								End Site
								{
									OFFSET 0.000000 0.000000 0.000000
								}
							}
						}
					}
				}
			}
		}
	}
}
MOTION
Frames: 7
Frame Time: 0.033333
-0.179506 116.037628 2.821913 179.479464 7.919960 170.766686 7.275975 1.521731 -4.615197 -0.221296 -6.028170 9.197242 -6.546528 10.132630 12.894886 2.334859 -0.549695 -3.353387 2.053366 -3.831075 5.440070 3.276899 0.156948 12.797575 -2.322108 -11.907025 -3.032910 0.134729 3.180802 -1.109620 3.621223 -0.562947 11.546658 1.608267 -3.665012 -2.288230 1.644460 -2.608459 5.883449 -6.766697 4.403697 5.978268 -0.886186 9.612183 1.261390 -11.554276 -7.670556 0.903575 -58.007208 -13.529503 15.421631 -5.809951 -18.884565 10.264306 9.109800 -6.801732 -11.361863 9.858605 3.481947 -1.275673 44.075891 -0.959037 12.163603 3.412957 22.988045 3.346573 -9.841988 6.507167 -10.127459 
-0.146697 116.049454 2.829895 179.390189 7.741240 170.523388 7.214426 1.439022 -4.355613 -0.269624 -6.119783 9.207682 -6.715897 10.045962 12.665003 2.291931 -0.508913 -3.256898 1.875894 -4.097035 5.684154 3.300630 -0.073703 12.778567 -2.146612 -11.888549 -3.008171 0.113487 3.180030 -1.089967 3.601761 -0.671810 11.404933 1.766256 -3.827931 -2.264956 1.637480 -2.709904 5.969881 -7.230792 4.318013 6.140198 -1.145450 9.556898 1.360182 -11.356572 -7.772984 0.948543 -57.526406 -13.853822 15.223714 -5.894434 -20.044598 10.220753 8.934954 -6.768115 -12.111557 9.892046 3.498714 -1.114054 43.815581 -1.268367 12.197752 3.465818 23.554621 3.482275 -9.391664 6.585410 -10.289096 
0.117595 116.055588 3.031720 179.201475 7.272478 170.168257 7.159622 1.416373 -4.380755 -0.317316 -5.941361 9.631137 -7.060467 9.749487 12.658241 2.136063 -0.539969 -3.081121 1.775172 -4.447213 5.946198 3.280427 -0.474354 12.752350 -2.155054 -11.968450 -2.983789 0.025440 3.149740 -1.149467 3.624532 -0.695174 11.338108 1.774545 -3.874198 -2.359449 1.667075 -2.714341 6.181634 -7.796558 4.190095 6.361401 -1.332057 9.364819 1.331602 -10.761161 -7.685420 0.715131 -56.795244 -14.217917 14.879647 -5.801908 -22.056068 9.834476 8.987368 -6.807237 -13.013210 9.707632 3.347513 -0.868579 43.611362 -1.770072 12.036383 3.399889 23.837462 3.360020 -9.030599 6.687945 -10.222311 
0.617301 116.055679 2.871638 178.943302 6.813360 169.882787 7.214321 1.353521 -4.396643 -0.549819 -5.931442 10.441310 -7.314630 9.547562 12.316174 2.031734 -0.727602 -2.929735 1.680754 -4.837402 6.498358 3.324076 -0.775859 12.512299 -2.099078 -12.184654 -3.124253 -0.128974 3.124553 -1.233874 3.634756 -0.596718 11.300671 1.728966 -3.855271 -2.447261 1.636408 -2.598005 6.393445 -8.256746 4.045601 6.793927 -1.507579 8.990532 1.239436 -10.271759 -7.331934 0.414148 -55.590197 -14.555290 14.395802 -5.531503 -24.413177 9.087810 9.104614 -6.747388 -14.193732 9.693676 3.013554 -0.587386 43.118245 -2.240914 11.702992 3.310196 23.855405 2.700832 -8.783956 6.680863 -10.423649 
1.150906 116.045776 2.498659 178.693705 6.130960 169.641985 7.352017 1.398736 -4.363937 -0.945877 -5.987857 11.400394 -7.493274 9.231536 11.643857 1.940039 -0.925815 -2.701388 1.586998 -5.303455 7.103307 3.357755 -1.105721 12.366694 -2.052321 -12.453750 -3.336121 -0.179185 3.122342 -1.313387 3.599724 -0.484429 11.366938 1.482445 -3.632261 -2.695577 1.550235 -2.428535 6.712671 -8.594593 3.894836 7.126074 -1.582300 8.591616 1.055317 -9.794499 -6.655416 -0.010387 -53.880408 -14.828610 13.576296 -4.880276 -27.411643 7.700164 9.700454 -6.662369 -15.706785 9.673727 2.517932 -0.271514 42.604704 -2.843321 11.254967 3.108085 23.680309 1.845297 -9.144277 6.670457 -10.484960 
1.794396 116.023865 2.240005 178.428459 5.142434 169.473298 7.502234 1.441487 -4.457813 -1.313851 -5.998311 12.464435 -7.568822 8.925327 10.918870 1.824555 -1.151817 -2.567655 1.585814 -5.852065 7.604157 3.336568 -1.550831 12.163866 -2.018012 -12.762564 -3.605210 -0.246457 3.025830 -1.405084 3.442891 -0.259436 11.322716 1.224254 -3.316073 -2.827496 1.417812 -2.217519 6.834371 -8.833255 3.705930 7.720800 -1.629260 7.931244 1.131334 -9.437542 -5.804546 -0.434941 -51.994440 -15.083713 12.904923 -3.917808 -30.789139 6.137068 10.248153 -6.569566 -17.151846 9.891209 1.938765 0.134098 41.850080 -3.381817 10.716767 2.693201 23.106925 0.725825 -9.314393 6.613454 -10.459485 
2.268651 115.989380 2.281800 178.167254 4.189683 169.363043 7.703015 1.491473 -4.377061 -1.812070 -6.127029 13.169171 -7.494140 8.926444 10.102024 1.825493 -1.372374 -2.480585 1.461201 -6.385598 7.948611 3.440952 -1.921588 11.790804 -1.927359 -13.054617 -3.977372 -0.298066 2.998411 -1.420420 3.263707 -0.008426 11.063766 0.792225 -2.945265 -2.866428 1.247579 -1.975580 6.938465 -9.001030 3.544454 8.422736 -1.612234 7.355430 1.138716 -9.253067 -4.907188 -0.819430 -49.875318 -15.280845 11.908227 -2.714940 -33.392740 4.170607 10.892333 -6.436919 -18.320077 10.102905 1.364708 0.516179 40.964281 -3.843422 10.101120 2.528185 22.284584 -0.228476 -9.666334 6.553291 -10.569944 
